<?xml version="1.0" encoding="UTF-8"?>
<!DOCTYPE svg PUBLIC "-//W3C//DTD SVG 1.1//EN" "http://www.w3.org/Graphics/SVG/1.1/DTD/svg11.dtd">
<!-- Creator: CorelDRAW 2020 (64-Bit) -->
<svg xmlns="http://www.w3.org/2000/svg" xml:space="preserve" width="13px" height="18px" version="1.1" style="shape-rendering:geometricPrecision; text-rendering:geometricPrecision; image-rendering:optimizeQuality; fill-rule:evenodd; clip-rule:evenodd"
viewBox="0 0 0.008 0.011"
 xmlns:xlink="http://www.w3.org/1999/xlink"
 xmlns:xodm="http://www.corel.com/coreldraw/odm/2003">
 <defs>
  <style type="text/css">
   <![CDATA[
    .fil0 {fill:currentColor;fill-rule:nonzero}
   ]]>
  </style>
 </defs>
 <g id="Layer_x0020_1">
  <metadata id="CorelCorpID_0Corel-Layer"/>
  <path class="fil0" d="M0.004 0.006c-0.001,0 -0.002,-0.001 -0.002,-0.002 0,-0.001 0.001,-0.002 0.002,-0.002 0.001,0 0.002,0.001 0.002,0.002 0,0.001 -0.001,0.002 -0.002,0.002zm0.004 -0.002c0,-0.002 -0.002,-0.004 -0.004,-0.004 -0.002,0 -0.004,0.002 -0.004,0.004 0,0.001 0,0.001 0.001,0.002l0 0 0.003 0.005 0.003 -0.005 0 0c0.001,-0.001 0.001,-0.001 0.001,-0.002z"/>
 </g>
</svg>
